<svg xmlns="http://www.w3.org/2000/svg" width="900" height="463" viewBox="0 0 900 463" role="img" aria-labelledby="title desc">
<title id="title">Variação em 24h: Portugueses no EA FC em 31/05: altas e baixas — PC</title>
<desc id="desc">Gráfico gerado a partir da tabela publicada neste artigo.</desc>
<rect width="100%" height="100%" rx="20" fill="#0f172a"/>
<text x="28" y="42" fill="#f8fafc" font-family="system-ui,sans-serif" font-size="23" font-weight="700">Variação em 24h</text>
<text x="28" y="70" fill="#94a3b8" font-family="system-ui,sans-serif" font-size="15">Dados do recorte publicado no artigo</text>
<text x="28" y="117" fill="#e2e8f0" font-family="system-ui,sans-serif" font-size="16">João Neves</text>
<rect x="285" y="95" width="480" height="28" rx="7" fill="#22c55e"/>
<text x="775" y="116" fill="#f8fafc" font-family="system-ui,sans-serif" font-size="15" font-weight="700">+42.2%</text>
<text x="28" y="175" fill="#e2e8f0" font-family="system-ui,sans-serif" font-size="16">Bruno Fernandes</text>
<rect x="285" y="153" width="430" height="28" rx="7" fill="#22c55e"/>
<text x="725" y="174" fill="#f8fafc" font-family="system-ui,sans-serif" font-size="15" font-weight="700">+37.8%</text>
<text x="28" y="233" fill="#e2e8f0" font-family="system-ui,sans-serif" font-size="16">João Cancelo</text>
<rect x="285" y="211" width="328" height="28" rx="7" fill="#22c55e"/>
<text x="623" y="232" fill="#f8fafc" font-family="system-ui,sans-serif" font-size="15" font-weight="700">+28.8%</text>
<text x="28" y="291" fill="#e2e8f0" font-family="system-ui,sans-serif" font-size="16">Félix Correia</text>
<rect x="285" y="269" width="325" height="28" rx="7" fill="#22c55e"/>
<text x="620" y="290" fill="#f8fafc" font-family="system-ui,sans-serif" font-size="15" font-weight="700">+28.6%</text>
<text x="28" y="349" fill="#e2e8f0" font-family="system-ui,sans-serif" font-size="16">João Félix</text>
<rect x="285" y="327" width="307" height="28" rx="7" fill="#22c55e"/>
<text x="602" y="348" fill="#f8fafc" font-family="system-ui,sans-serif" font-size="15" font-weight="700">+27.0%</text>
<text x="28" y="407" fill="#e2e8f0" font-family="system-ui,sans-serif" font-size="16">Eusébio</text>
<rect x="285" y="385" width="285" height="28" rx="7" fill="#22c55e"/>
<text x="580" y="406" fill="#f8fafc" font-family="system-ui,sans-serif" font-size="15" font-weight="700">+25.1%</text>
</svg>
